<?xml version="1.0" encoding="UTF-8"?>
<svg version="1.1" xmlns="http://www.w3.org/2000/svg" width="360" height="360">
<path d="M0 0 C118.8 0 237.6 0 360 0 C360 118.8 360 237.6 360 360 C241.2 360 122.4 360 0 360 C0 241.2 0 122.4 0 0 Z " fill="#015FAF" transform="translate(0,0)"/>
<path d="M0 0 C118.8 0 237.6 0 360 0 C360 118.8 360 237.6 360 360 C241.2 360 122.4 360 0 360 C0 241.2 0 122.4 0 0 Z M164.13671875 28.08984375 C138.44251872 29.40175185 111.62525986 41.10734913 91 56 C90.2471875 56.54011719 89.494375 57.08023438 88.71875 57.63671875 C74.50498196 68.2712952 63.20270073 80.88611004 53.12207031 95.39453125 C52.18739654 96.73187127 51.23283576 98.05528475 50.2734375 99.375 C45.52390966 106.08021578 42.27056354 113.50090919 39 121 C38.54496094 122.01707031 38.08992188 123.03414063 37.62109375 124.08203125 C31.960742 137.62074091 28.25755098 153.30242391 28 168 C27.97566895 168.78890625 27.95133789 169.5778125 27.92626953 170.390625 C26.97518547 203.09373909 33.611261 233.09319448 51 261 C51.73089844 262.24136719 51.73089844 262.24136719 52.4765625 263.5078125 C53.58988165 265.3763657 54.78548704 267.19558074 56 269 C56.66 269 57.32 269 58 269 C58.25136719 269.7321875 58.50273438 270.464375 58.76171875 271.21875 C61.0350202 276.32471413 65.17897598 279.99391214 69 284 C69.48436523 284.51691406 69.96873047 285.03382813 70.46777344 285.56640625 C78.28382021 293.87815362 86.45849857 300.74945954 96 307 C97.25876953 307.82564453 97.25876953 307.82564453 98.54296875 308.66796875 C100.99020212 310.19697721 103.46853535 311.61458525 106 313 C106.55848633 313.30647461 107.11697266 313.61294922 107.69238281 313.92871094 C141.34006563 332.16714292 182.01888423 337.25055063 219 327 C220.26199219 326.67773438 221.52398437 326.35546875 222.82421875 326.0234375 C230.28235694 324.03997588 237.09233581 321.41884392 244 318 C244.94230469 317.55914062 245.88460937 317.11828125 246.85546875 316.6640625 C282.98483253 299.38687665 309.92550584 267.91477292 323.8605957 230.52636719 C328.78341364 216.51257887 331.78054549 201.85538188 332 187 C332.02707031 185.845 332.05414063 184.69 332.08203125 183.5 C332.12505526 179.99549917 332.0784715 176.50375253 332 173 C331.99484375 171.90042969 331.9896875 170.80085937 331.984375 169.66796875 C331.27269982 147.02144784 323.20867225 124.98631167 313 105 C312.34 105 311.68 105 311 105 C310.90976562 104.28328125 310.81953125 103.5665625 310.7265625 102.828125 C309.86265293 99.46538022 308.46712398 97.51257298 306.375 94.75 C305.72273438 93.87859375 305.07046875 93.0071875 304.3984375 92.109375 C303.60695313 91.08328125 302.81546875 90.0571875 302 89 C301.49380127 88.32316162 300.98760254 87.64632324 300.46606445 86.94897461 C283.67766149 64.78809031 261.63937289 48.52274416 236 38 C234.75283203 37.48179688 234.75283203 37.48179688 233.48046875 36.953125 C211.07689745 28.2200987 187.86271681 27.53807635 164.13671875 28.08984375 Z " fill="#F4F5F5" transform="translate(0,0)"/>
<path d="M0 0 C3.74184754 1.5597899 6.10902778 3.86732173 8.95214844 6.72509766 C9.4306575 7.20331467 9.90916656 7.68153168 10.4021759 8.17424011 C11.97603195 9.74948483 13.54269293 11.33168535 15.109375 12.9140625 C16.20181286 14.01023213 17.29469434 15.10595981 18.38800049 16.20126343 C21.25951242 19.08039888 24.12496654 21.96549056 26.98919678 24.85186768 C29.91494126 27.79809815 32.84638014 30.73865069 35.77734375 33.6796875 C41.52381482 39.44758588 47.26389806 45.22178964 53 51 C58.62144414 48.31871432 62.0587433 44.35314175 64.375 38.5625 C64.58125 37.716875 64.7875 36.87125 65 36 C70.81325733 39.0962367 76.24368749 42.4342131 81.5625 46.3125 C88.54493331 51.32427037 95.64498126 56.13220847 102.8125 60.875 C111.15957901 66.40403684 119.40995732 72.04493732 127.58813477 77.8203125 C136.93348471 84.39986335 146.46216039 90.70410042 156 97 C156.33 96.01 156.66 95.02 157 94 C158.26975648 100.70149254 158.14611808 107.20203036 158 114 C157.97486328 115.71896484 157.97486328 115.71896484 157.94921875 117.47265625 C156.38525181 157.82300318 135.46996342 194.396672 106.60986328 221.54248047 C86.66647456 239.59859673 61.887946 250.04186971 36 256 C35.32308105 256.17515137 34.64616211 256.35030273 33.94873047 256.53076172 C27.57363915 258.10906801 21.30045635 258.51737882 14.75 258.75 C13.61626953 258.79165283 12.48253906 258.83330566 11.31445312 258.8762207 C-1.06298599 259.21859384 -13.20682837 258.24421818 -25.3984375 256.11328125 C-26.20458496 255.97317627 -27.01073242 255.83307129 -27.84130859 255.6887207 C-31.5933014 254.49166441 -32.95149863 252.27760219 -35 249 C-35 248.34 -35 247.68 -35 247 C-35.66 247 -36.32 247 -37 247 C-38.65625 245.390625 -38.65625 245.390625 -40.5 243.25 C-41.1084375 242.55390625 -41.716875 241.8578125 -42.34375 241.140625 C-43.87976963 239.15539208 -44.9723966 237.28127955 -46 235 C-46.66 235 -47.32 235 -48 235 C-49.65625 233.390625 -49.65625 233.390625 -51.5 231.25 C-52.1084375 230.55390625 -52.716875 229.8578125 -53.34375 229.140625 C-54.87976963 227.15539208 -55.9723966 225.28127955 -57 223 C-57.66 223 -58.32 223 -59 223 C-60.65625 221.390625 -60.65625 221.390625 -62.5 219.25 C-63.1084375 218.55390625 -63.716875 217.8578125 -64.34375 217.140625 C-65.87976963 215.15539208 -66.9723966 213.28127955 -68 211 C-68.66 211 -69.32 211 -70 211 C-71.55078125 209.4609375 -71.55078125 209.4609375 -73.3125 207.375 C-73.88613281 206.70210937 -74.45976563 206.02921875 -75.05078125 205.3359375 C-77.36850339 202.55838672 -79.68419832 199.7791522 -82 197 C-81.17200881 196.99503478 -81.17200881 196.99503478 -80.32729053 196.98996925 C-66.88967258 196.9087125 -53.45216835 196.81648658 -40.01470661 196.71247292 C-33.51641797 196.66250387 -27.01814563 196.61617369 -20.51977539 196.578125 C-14.24978039 196.54128016 -7.97992161 196.49492204 -1.71004295 196.44193649 C0.68334377 196.42338835 3.07675969 196.40828196 5.47019005 196.39665604 C8.81970577 196.37980108 12.16890925 196.35076713 15.51831055 196.31884766 C16.51021393 196.31668747 17.50211731 196.31452728 18.52407837 196.31230164 C25.03144012 196.33021008 25.03144012 196.33021008 31 194 C31.8923441 191.32296769 32.25160342 189.40616916 32.375 186.625 C32.42398438 185.87476563 32.47296875 185.12453125 32.5234375 184.3515625 C31.69400551 180.62530836 30.02685819 179.26135599 27 177 C24.05837172 176.28357811 21.20601231 176.21027168 18.1875 176.1875 C17.39923828 176.16236328 16.61097656 176.13722656 15.79882812 176.11132812 C13.86641627 176.05277019 11.93315673 176.02344512 10 176 C10 175.34 10 174.68 10 174 C10.804375 173.731875 11.60875 173.46375 12.4375 173.1875 C13.283125 172.795625 14.12875 172.40375 15 172 C16.34823473 167.95529581 16.55930653 164.22927674 16 160 C13.81105486 156.95111212 11.43238104 155.42407714 8 154 C5.75978822 153.90654805 5.75978822 153.90654805 3.39453125 154.18359375 C-5.12677624 154.65226182 -12.29711864 154.98611771 -19.125 149.26171875 C-22.82727562 145.69423939 -26.2215542 141.88666089 -29.44799805 137.88525391 C-30.88096209 136.14459819 -32.37839463 134.56394151 -34 133 C-33.43152344 132.93683594 -32.86304688 132.87367188 -32.27734375 132.80859375 C-26.3016803 131.86086749 -23.35613589 130.03193046 -19.41015625 125.4609375 C-18.94480469 124.97882813 -18.47945312 124.49671875 -18 124 C-17.34 124 -16.68 124 -16 124 C-18.16258321 120.05367485 -20.64225078 117.12368129 -23.83862305 113.96606445 C-24.31698608 113.49062195 -24.79534912 113.01517944 -25.28820801 112.52532959 C-26.32051059 111.5006002 -27.35511604 110.47818646 -28.39179039 109.45788002 C-30.03085212 107.84444705 -31.66349445 106.22475856 -33.29463196 104.60331726 C-36.75334503 101.16739454 -40.21986231 97.73941241 -43.6875 94.3125 C-47.71656234 90.33060013 -51.74238103 86.34553204 -55.75989723 82.35198021 C-57.37128809 80.75358744 -58.98856612 79.16131527 -60.60612488 77.56916809 C-61.58756283 76.59499087 -62.5687235 75.62053419 -63.54956055 74.64575195 C-64.41099167 73.79479446 -65.27242279 72.94383698 -66.15995789 72.0670929 C-68 70 -68 70 -68 68 C-67.34 68 -66.68 68 -66 68 C-66 67.34 -66 66.68 -66 66 C-65.34 66 -64.68 66 -64 66 C-64 65.34 -64 64.68 -64 64 C-63.34 64 -62.68 64 -62 64 C-61.67 63.01 -61.34 62.02 -61 61 C-57.09421333 63.14693443 -54.16476255 65.59162393 -51.02612305 68.74682617 C-50.55722153 69.21543564 -50.08832001 69.6840451 -49.60520935 70.16685486 C-48.06925223 71.70419612 -46.54048592 73.24848032 -45.01171875 74.79296875 C-43.9431312 75.86528968 -42.87409882 76.9371675 -41.80464172 78.00862122 C-39.00054116 80.82033257 -36.20250075 83.63799948 -33.40570068 86.45697021 C-30.5469054 89.33627903 -27.68239083 92.20988558 -24.81835938 95.08398438 C-19.20664205 100.71710654 -13.60131718 106.35653639 -8 112 C-4.00744664 110.17261035 -1.36438985 107.52425027 1.625 104.375 C3.37971841 102.52792799 5.15000225 100.75602961 7 99 C7.66 99 8.32 99 9 99 C10.44646263 100.46479321 10.44646263 100.46479321 12.12704468 102.4929657 C15.8834497 106.9069578 19.86912169 111.01701717 23.96728516 115.11254883 C24.73080795 115.87943024 25.49433075 116.64631165 26.2809906 117.43643188 C28.78106109 119.94592694 31.28481522 122.4517047 33.7890625 124.95703125 C35.53835214 126.7095372 37.28756769 128.4621171 39.03671265 130.21476746 C42.69132027 133.87534347 46.34796937 137.53386622 50.00585938 141.19116211 C54.69278992 145.87799066 59.37278148 150.5716831 64.05106544 155.26714039 C67.65586197 158.88304639 71.26518513 162.49440747 74.8758049 166.10449791 C76.60377963 167.83365246 78.33013355 169.56442828 80.05482864 171.29685402 C82.46233639 173.7141488 84.87608477 176.12503784 87.29150391 178.53442383 C88.00123856 179.24977798 88.71097321 179.96513214 89.44221497 180.7021637 C95.84869954 187.25479695 95.84869954 187.25479695 104.4375 189.4375 C108.96275828 189.27212511 111.52474711 187.99033389 115 185 C118.84924739 180.63058404 120.08682077 178.19573925 120.42578125 172.36328125 C119.17825657 165.43894702 114.1516248 160.80364555 109.25 156.1875 C107.1166303 154.16148402 105.04761281 152.1156693 103 150 C103 149.34 103 148.68 103 148 C102.34 148 101.68 148 101 148 C99.78196716 146.76196289 99.78196716 146.76196289 98.27905273 144.91015625 C92.43083608 138.04071795 85.9223562 131.79963469 79.53515625 125.4375 C78.13246609 124.03667785 76.72999872 122.63563257 75.32774353 121.234375 C71.6590246 117.56945113 67.98731122 113.90754192 64.31494141 110.24627686 C60.55904022 106.50065494 56.80601289 102.75215587 53.05273438 99.00390625 C45.70461446 91.66647047 38.3533242 84.33221995 31 77 C32.83692389 72.99625569 35.49117916 70.28042066 38.625 67.25 C39.140625 66.74339844 39.65625 66.23679687 40.1875 65.71484375 C41.45383339 64.47196098 42.7263144 63.23534724 44 62 C42.4402101 58.25815246 40.13267827 55.89097222 37.27490234 53.04785156 C36.79668533 52.5693425 36.31846832 52.09083344 35.82575989 51.5978241 C34.25051517 50.02396805 32.66831465 48.45730707 31.0859375 46.890625 C29.98976787 45.79818714 28.89404019 44.70530566 27.79873657 43.61199951 C24.91960112 40.74048758 22.03450944 37.87503346 19.14813232 35.01080322 C16.20190185 32.08505874 13.26134931 29.15361986 10.3203125 26.22265625 C4.55241412 20.47618518 -1.22178964 14.73610194 -7 9 C-6.67 8.01 -6.34 7.02 -6 6 C-5.34 6 -4.68 6 -4 6 C-4 5.34 -4 4.68 -4 4 C-3.34 4 -2.68 4 -2 4 C-1.34 2.68 -0.68 1.36 0 0 Z " fill="#015095" transform="translate(174,73)"/>
<path d="M0 0 C3.74184754 1.5597899 6.10902778 3.86732173 8.95214844 6.72509766 C9.4306575 7.20331467 9.90916656 7.68153168 10.4021759 8.17424011 C11.97603195 9.74948483 13.54269293 11.33168535 15.109375 12.9140625 C16.20181286 14.01023213 17.29469434 15.10595981 18.38800049 16.20126343 C21.25951242 19.08039888 24.12496654 21.96549056 26.98919678 24.85186768 C29.91494126 27.79809815 32.84638014 30.73865069 35.77734375 33.6796875 C41.52381482 39.44758588 47.26389806 45.22178964 53 51 C51.16307611 55.00374431 48.50882084 57.71957934 45.375 60.75 C44.859375 61.25660156 44.34375 61.76320312 43.8125 62.28515625 C42.54616661 63.52803902 41.2736856 64.76465276 40 66 C41.27803451 68.80334532 42.59863227 70.84540137 44.78408813 73.01113892 C45.35058578 73.57749557 45.91708344 74.14385223 46.50074768 74.72737122 C47.12005661 75.3363475 47.73936554 75.94532379 48.37744141 76.57275391 C49.03122269 77.22361465 49.68500397 77.8744754 50.3585968 78.5450592 C51.77671415 79.9555731 53.19713712 81.36377189 54.61958694 82.76991653 C56.86759588 84.99241393 59.1093108 87.22108682 61.34945679 89.45150757 C66.10241834 94.18161114 70.86315733 98.90383946 75.625 103.625 C81.14880235 109.10168631 86.66941442 114.58150777 92.18168259 120.06980515 C94.39579422 122.27090161 96.61581988 124.46591548 98.83609009 126.66079712 C100.18480238 128.00224851 101.533237 129.34397915 102.88134766 130.68603516 C103.50470505 131.29905991 104.12806244 131.91208466 104.77030945 132.54368591 C106.21865157 133.99166394 107.61530402 135.49104264 109 137 C109 137.66 109 138.32 109 139 C109.66 139 110.32 139 111 139 C112.4453125 140.46875 112.4453125 140.46875 114.125 142.5 C116.70055455 145.54971522 119.36453095 148.3673008 122.25 151.125 C126.45558589 155.31428517 129.05914858 158.94637722 129.4375 165 C129.22101167 169.94158134 127.04061902 173.07390551 123.46875 176.4453125 C119.04626556 180.23911042 116.28125476 181.51572697 110.53309631 181.38371658 C103.00344335 180.24311538 96.60025799 171.88682377 91.47265625 166.73144531 C90.66194168 165.92423538 89.85122711 165.11702545 89.01594543 164.28535461 C86.35977162 161.63792541 83.71091143 158.98331775 81.0625 156.328125 C79.21334567 154.48031862 77.3638946 152.63280916 75.51416016 150.7855835 C71.65085997 146.92590749 67.79176479 143.06206492 63.93505859 139.19580078 C59.47390411 134.72371838 55.00552794 130.25894866 50.53342342 125.79781842 C46.2242726 121.49881907 41.9207425 117.19423946 37.61959839 112.88722992 C35.79014062 111.05643467 33.95918689 109.22713307 32.1267395 107.39933014 C29.57703175 104.85467216 27.03377351 102.30374292 24.4921875 99.75097656 C23.72864456 98.99148209 22.96510162 98.23198761 22.17842102 97.44947815 C21.49160751 96.75702499 20.80479401 96.06457184 20.09716797 95.35113525 C19.49548798 94.74870121 18.89380798 94.14626717 18.27389526 93.52557755 C17 92 17 92 17 90 C11.77674023 94.46351289 6.79077028 99.0744893 2 104 C-1.74184754 102.4402101 -4.10902778 100.13267827 -6.95214844 97.27490234 C-7.4306575 96.79668533 -7.90916656 96.31846832 -8.4021759 95.82575989 C-9.97603195 94.25051517 -11.54269293 92.66831465 -13.109375 91.0859375 C-14.20181286 89.98976787 -15.29469434 88.89404019 -16.38800049 87.79873657 C-19.25951242 84.91960112 -22.12496654 82.03450944 -24.98919678 79.14813232 C-27.91494126 76.20190185 -30.84638014 73.26134931 -33.77734375 70.3203125 C-39.52381482 64.55241412 -45.26389806 58.77821036 -51 53 C-49.4402101 49.25815246 -47.13267827 46.89097222 -44.27490234 44.04785156 C-43.79668533 43.5693425 -43.31846832 43.09083344 -42.82575989 42.5978241 C-41.25051517 41.02396805 -39.66831465 39.45730707 -38.0859375 37.890625 C-36.98976787 36.79818714 -35.89404019 35.70530566 -34.79873657 34.61199951 C-31.91960112 31.74048758 -29.03450944 28.87503346 -26.14813232 26.01080322 C-23.20190185 23.08505874 -20.26134931 20.15361986 -17.3203125 17.22265625 C-11.55241412 11.47618518 -5.77821036 5.73610194 0 0 Z " fill="#FDFDFE" transform="translate(166,82)"/>
<path d="M0 0 C0.7431395 -0.0049649 1.48627899 -0.00992981 2.25193787 -0.01504517 C4.72232983 -0.029707 7.19265752 -0.03647657 9.66308594 -0.04199219 C11.37603762 -0.04774177 13.08898928 -0.05349953 14.80194092 -0.05926514 C18.40002748 -0.06978755 21.99809162 -0.07562161 25.59619141 -0.07910156 C30.20424283 -0.08457901 34.81199767 -0.10858561 39.41995621 -0.13707352 C42.96131245 -0.15571231 46.50259757 -0.16090623 50.04399872 -0.16243744 C51.74244553 -0.16546335 53.44089112 -0.17348982 55.13928986 -0.18662262 C57.51886892 -0.20370404 59.89772801 -0.20179764 62.27734375 -0.1953125 C62.97780319 -0.20452728 63.67826263 -0.21374207 64.39994812 -0.22323608 C68.73938162 -0.18624496 71.45520736 0.49347185 74.89746094 3.16113281 C77.56640794 7.16455331 77.73013612 10.45363253 76.89746094 15.16113281 C74.52246094 18.22363281 74.52246094 18.22363281 71.89746094 20.16113281 C71.23746094 20.16113281 70.57746094 20.16113281 69.89746094 20.16113281 C69.89746094 20.82113281 69.89746094 21.48113281 69.89746094 22.16113281 C71.06664062 22.11472656 72.23582031 22.06832031 73.44042969 22.02050781 C74.98858114 21.98297687 76.53676033 21.94657812 78.08496094 21.91113281 C78.85388672 21.87761719 79.6228125 21.84410156 80.41503906 21.80957031 C84.43999101 21.74047242 86.39554818 21.84358278 89.88574219 24.05175781 C93.21437119 27.54197075 93.28692642 30.22786706 93.25683594 34.89941406 C92.68689228 38.48634211 90.69520045 40.02952175 87.89746094 42.16113281 C85.56575297 43.3269868 84.19495977 43.2941942 81.597229 43.30830383 C80.694422 43.31545914 79.79161499 43.32261444 78.8614502 43.32998657 C77.86818726 43.33267548 76.87492432 43.33536438 75.8515625 43.33813477 C74.80752258 43.34470596 73.76348267 43.35127716 72.68780518 43.35804749 C69.22123143 43.37781181 65.75470106 43.38945023 62.28808594 43.39941406 C60.51479542 43.40552735 60.51479542 43.40552735 58.70568085 43.41176414 C52.44832025 43.4326385 46.19098166 43.44693418 39.93359375 43.45629883 C33.46590037 43.46736461 26.99855092 43.50176299 20.53097916 43.54147053 C15.56214757 43.56760065 10.59339835 43.5759875 5.62450409 43.57958031 C3.24026925 43.58445576 0.85603831 43.59609683 -1.52812958 43.6146183 C-4.86538524 43.63893167 -8.20174562 43.63805852 -11.5390625 43.63110352 C-12.52422852 43.64391357 -13.50939453 43.65672363 -14.52441406 43.66992188 C-20.36008674 43.62559144 -23.65126148 43.03627818 -28.10253906 39.16113281 C-30.0155737 36.08364232 -30.10507304 34.30303574 -30.04003906 30.66113281 C-28.87763699 26.3214984 -27.65640023 24.89380152 -24.10253906 22.16113281 C-21.13474129 21.5699611 -18.30086551 21.68458946 -15.29003906 21.84863281 C-14.50177734 21.87119141 -13.71351562 21.89375 -12.90136719 21.91699219 C-10.96759977 21.9755912 -9.03481739 22.06526454 -7.10253906 22.16113281 C-7.10253906 21.50113281 -7.10253906 20.84113281 -7.10253906 20.16113281 C-7.99972656 19.85175781 -7.99972656 19.85175781 -8.91503906 19.53613281 C-12.03590517 17.57444555 -12.84946514 15.59059828 -14.10253906 12.16113281 C-14.10253906 7.93874296 -13.4314004 6.53110182 -10.60253906 3.34863281 C-9.77753906 2.62675781 -8.95253906 1.90488281 -8.10253906 1.16113281 C-6.18336326 -0.75804299 -2.61502822 0.00412562 0 0 Z " fill="#FEFEFE" transform="translate(114.1025390625,226.8388671875)"/>
<path d="M0 0 C3.76406306 1.56822324 6.16947169 3.90987421 9.04394531 6.76928711 C9.53220795 7.25243881 10.02047058 7.73559052 10.52352905 8.23338318 C12.13025065 9.82624366 13.72947435 11.42638593 15.328125 13.02734375 C16.44320031 14.13853167 17.55849893 15.24949553 18.67401123 16.36024475 C21.0074495 18.68622938 23.33698426 21.01604173 25.6640625 23.34838867 C28.65069871 26.34083387 31.64857729 29.32172837 34.64967728 32.29965878 C36.95394957 34.5892259 39.25128607 36.88565387 41.54665375 39.18414497 C42.64954909 40.286526 43.75481853 41.386537 44.8624649 42.48414421 C46.40677105 44.01615883 47.94128956 45.55735114 49.47363281 47.10131836 C50.34981262 47.97686874 51.22599243 48.85241913 52.12872314 49.75450134 C54 52 54 52 54 55 C52.35546875 56.75390625 52.35546875 56.75390625 50.1875 58.5625 C49.47980469 59.16191406 48.77210938 59.76132813 48.04296875 60.37890625 C43.57636609 63.92315119 43.57636609 63.92315119 40.1875 64.375 C32.67928544 63.49168064 27.48708104 56.76484546 22.42578125 51.65625 C21.21730782 50.44708923 21.21730782 50.44708923 19.98442078 49.21350098 C18.28858846 47.51465718 16.59517756 45.81339323 14.90405273 44.10986328 C12.31612441 41.50365002 9.72025491 38.90555619 7.12304688 36.30859375 C5.47348525 34.65411738 3.82438091 32.99918492 2.17578125 31.34375 C1.4007576 30.56761353 0.62573395 29.79147705 -0.17277527 28.99182129 C-0.89395035 28.26426636 -1.61512543 27.53671143 -2.3581543 26.78710938 C-2.99069626 26.15075562 -3.62323822 25.51440186 -4.27494812 24.85876465 C-7.78722551 21.0742425 -9.72480461 18.58721661 -9.5625 13.16015625 C-8.62745855 9.56933734 -6.28332029 7.35530227 -3.7265625 4.76171875 C-1.80743322 2.9128925 -1.80743322 2.9128925 0 0 Z " fill="#FBFCFD" transform="translate(104,142)"/>
<path d="M0 0 C4.56933224 1.22629942 7.56816675 4.80275749 10.80029297 8.10205078 C12.44194808 9.77285728 14.11339132 11.41020455 15.7890625 13.046875 C21.21113698 18.37078626 26.52375739 23.72347848 31.42578125 29.53515625 C34.556793 33.03452233 37.93009122 36.29766565 41.28759766 39.57861328 C44.70384929 42.937836 46.12236052 44.4330122 46.78515625 49.23828125 C46.74983206 54.07769562 44.39643927 56.5281016 41.20703125 59.94921875 C39.30643355 61.59485822 37.54040945 62.53837485 35.28515625 63.61328125 C28.49934407 56.87373025 21.71888787 50.12885035 14.94528198 43.37703133 C11.80014002 40.24234389 8.65315752 37.10955097 5.50195312 33.98095703 C2.46315103 30.96382388 -0.57079467 27.94188637 -3.60137939 24.91650009 C-4.76071132 23.76087464 -5.92180722 22.60701614 -7.08465576 21.45492935 C-8.70822382 19.84579713 -10.32550794 18.23059833 -11.94140625 16.61376953 C-13.32706787 15.23476974 -13.32706787 15.23476974 -14.74072266 13.82791138 C-16.71484375 11.61328125 -16.71484375 11.61328125 -16.71484375 9.61328125 C-15.0703125 7.95703125 -15.0703125 7.95703125 -12.90234375 6.11328125 C-11.84080078 5.200625 -11.84080078 5.200625 -10.7578125 4.26953125 C-7.2266416 1.40678467 -4.6710195 -0.16106964 0 0 Z " fill="#FDFDFE" transform="translate(191.71484375,61.38671875)"/>
<path d="M0 0 C0.5775 0.73089844 1.155 1.46179688 1.75 2.21484375 C7.14674463 8.8951891 13.03389921 15.13972629 19.0625 21.25 C19.82385254 22.02754639 19.82385254 22.02754639 20.60058594 22.82080078 C23.46327607 25.68071878 26.27454318 27.88913341 29.75 29.9375 C31.640625 31.22265625 31.640625 31.22265625 33 33 C33.67702749 37.53717616 33.37750588 41.37555293 33 46 C28.05 46 23.1 46 18 46 C18 41.05 18 36.1 18 31 C13.05 31 8.1 31 3 31 C3 26.05 3 21.1 3 16 C-1.95 16 -6.9 16 -12 16 C-12 11.05 -12 6.1 -12 1 C-10.205625 1.020625 -8.41125 1.04125 -6.5625 1.0625 C-4.70833878 1.0838122 -2.85287502 1.07226502 -1 1 C-0.67 0.67 -0.34 0.34 0 0 Z " fill="#EDEDED" transform="translate(57,269)"/>
<path d="M0 0 C4.95 0 9.9 0 15 0 C15 3.3 15 6.6 15 10 C15.66 10.33 16.32 10.66 17 11 C16.41734375 11.44988281 15.8346875 11.89976563 15.234375 12.36328125 C2.1444696 22.63350577 -8.9151333 33.75786501 -19 47 C-19.33 46.34 -19.66 45.68 -20 45 C-23.3 45 -26.6 45 -30 45 C-30 40.05 -30 35.1 -30 30 C-25.05 30 -20.1 30 -15 30 C-15 25.05 -15 20.1 -15 15 C-10.05 15 -5.1 15 0 15 C0 10.05 0 5.1 0 0 Z " fill="#FEFEFE" transform="translate(75,45)"/>
<path d="M0 0 C2.97 0 5.94 0 9 0 C9 4.95 9 9.9 9 15 C13.95 15 18.9 15 24 15 C24 19.95 24 24.9 24 30 C18.39 30 12.78 30 7 30 C5.1875 22 5.1875 22 4.63745117 19.53125 C3.77136238 15.78405358 2.76420993 12.21451136 1.375 8.625 C0.1426375 5.37604432 -0.31920049 3.40480519 0 0 Z " fill="#EDEEEE" transform="translate(321,120)"/>
<path d="M0 0 C1.33268915 3.99806745 -0.12632257 6.16269915 -1.75 9.8125 C-4.846284 17.09118498 -6.62869968 24.19321133 -8 32 C-8.66 32 -9.32 32 -10 32 C-10 32.66 -10 33.32 -10 34 C-14.95 34 -19.9 34 -25 34 C-25 29.05 -25 24.1 -25 19 C-20.05 19 -15.1 19 -10 19 C-10 14.05 -10 9.1 -10 4 C-7.03 4 -4.06 4 -1 4 C-0.67 2.68 -0.34 1.36 0 0 Z " fill="#FEFEFE" transform="translate(40,116)"/>
<path d="M0 0 C3.83114266 1.53245706 6.83933601 3.01260889 10.3125 5.125 C17.67409658 9.49049111 25.31369711 13.24463628 33 17 C32.01 17.495 32.01 17.495 31 18 C31 20.97 31 23.94 31 27 C26.05 27 21.1 27 16 27 C16 22.05 16 17.1 16 12 C11.05 12 6.1 12 1 12 C0.67 8.04 0.34 4.08 0 0 Z " fill="#FCFDFD" transform="translate(89,303)"/>
<path d="M0 0 C3.96 0.33 7.92 0.66 12 1 C12 5.95 12 10.9 12 16 C16.95 16 21.9 16 27 16 C27 20.95 27 25.9 27 31 C24.03 31 21.06 31 18 31 C17.67 31.66 17.34 32.32 17 33 C15.82866942 30.54379149 14.66278278 28.08525083 13.5 25.625 C13.16613281 24.92632812 12.83226562 24.22765625 12.48828125 23.5078125 C10 18.2265625 10 18.2265625 10 16 C9.34 16 8.68 16 8 16 C7.608125 15.175 7.21625 14.35 6.8125 13.5 C5.0487185 10.0940771 3.09154069 6.93579644 0.98828125 3.734375 C0 2 0 2 0 0 Z " fill="#FCFDFD" transform="translate(303,89)"/>
<path d="M0 0 C2.05181852 3.51197509 3.93283104 7.09639213 5.7890625 10.71484375 C9.0105299 16.91058184 12.36383582 22.86629643 16.4765625 28.52734375 C16.1465625 29.18734375 15.8165625 29.84734375 15.4765625 30.52734375 C11.8465625 30.19734375 8.2165625 29.86734375 4.4765625 29.52734375 C4.4765625 24.57734375 4.4765625 19.62734375 4.4765625 14.52734375 C-0.4734375 14.52734375 -5.4234375 14.52734375 -10.5234375 14.52734375 C-10.5234375 9.57734375 -10.5234375 4.62734375 -10.5234375 -0.47265625 C-2.01899023 -1.95169056 -2.01899023 -1.95169056 0 0 Z " fill="#FDFDFE" transform="translate(40.5234375,240.47265625)"/>
<path d="M0 0 C4.95 0 9.9 0 15 0 C15.125 8.75 15.125 8.75 14 11 C11.51686174 12.31251594 9.03562323 13.5475395 6.5 14.75 C0.932289 17.44126607 -4.24217543 20.23811592 -9.203125 23.96875 C-11 25 -11 25 -15 25 C-15 21.7 -15 18.4 -15 15 C-10.05 15 -5.1 15 0 15 C0 10.05 0 5.1 0 0 Z " fill="#EEEEEF" transform="translate(105,30)"/>
<path d="M0 0 C3.3 0 6.6 0 10 0 C9.43528096 4.13879611 8.08634668 6.74900718 5.75 10.1875 C2.39368247 15.28079835 -0.4043392 20.48571599 -3 26 C-3.66 26 -4.32 26 -5 26 C-5.33 27.32 -5.66 28.64 -6 30 C-8.97 30 -11.94 30 -15 30 C-15 25.05 -15 20.1 -15 15 C-10.05 15 -5.1 15 0 15 C0 10.05 0 5.1 0 0 Z " fill="#EEEEEF" transform="translate(45,90)"/>
<path d="M0 0 C0.33 0 0.66 0 1 0 C0.67 2.64 0.34 5.28 0 8 C4.95 8 9.9 8 15 8 C15 12.95 15 17.9 15 23 C10.05 23 5.1 23 0 23 C-0.19493851 19.91697247 -0.38122955 16.83383561 -0.5625 13.75 C-0.61857422 12.87730469 -0.67464844 12.00460938 -0.73242188 11.10546875 C-0.78076172 10.26113281 -0.82910156 9.41679687 -0.87890625 8.546875 C-0.9260376 7.77182617 -0.97316895 6.99677734 -1.02172852 6.19824219 C-0.99969234 3.96887415 -0.6303897 2.13101433 0 0 Z " fill="#FFFFFF" transform="translate(330,202)"/>
<path d="M0 0 C3.296875 0.31640625 3.296875 0.31640625 8.796875 1.44140625 C8.796875 6.39140625 8.796875 11.34140625 8.796875 16.44140625 C3.846875 16.44140625 -1.103125 16.44140625 -6.203125 16.44140625 C-6.533125 13.80140625 -6.863125 11.16140625 -7.203125 8.44140625 C-8.193125 9.92640625 -8.193125 9.92640625 -9.203125 11.44140625 C-9.863125 11.11140625 -10.523125 10.78140625 -11.203125 10.44140625 C-5.40940303 0.74544212 -5.40940303 0.74544212 0 0 Z " fill="#FEFEFE" transform="translate(306.203125,268.55859375)"/>
<path d="M0 0 C4.95 0 9.9 0 15 0 C15 4.95 15 9.9 15 15 C10.05 15 5.1 15 0 15 C0 10.05 0 5.1 0 0 Z " fill="#FFFFFF" transform="translate(345,345)"/>
<path d="M0 0 C4.95 0 9.9 0 15 0 C15 4.95 15 9.9 15 15 C10.05 15 5.1 15 0 15 C0 10.05 0 5.1 0 0 Z " fill="#EEEEEE" transform="translate(330,345)"/>
<path d="M0 0 C4.95 0 9.9 0 15 0 C15 4.95 15 9.9 15 15 C10.05 15 5.1 15 0 15 C0 10.05 0 5.1 0 0 Z " fill="#FFFFFF" transform="translate(315,345)"/>
<path d="M0 0 C4.95 0 9.9 0 15 0 C15 4.95 15 9.9 15 15 C10.05 15 5.1 15 0 15 C0 10.05 0 5.1 0 0 Z " fill="#EEEEEE" transform="translate(300,345)"/>
<path d="M0 0 C4.95 0 9.9 0 15 0 C15 4.95 15 9.9 15 15 C10.05 15 5.1 15 0 15 C0 10.05 0 5.1 0 0 Z " fill="#FFFFFF" transform="translate(285,345)"/>
<path d="M0 0 C4.95 0 9.9 0 15 0 C15 4.95 15 9.9 15 15 C10.05 15 5.1 15 0 15 C0 10.05 0 5.1 0 0 Z " fill="#FFFFFF" transform="translate(255,345)"/>
<path d="M0 0 C4.95 0 9.9 0 15 0 C15 4.95 15 9.9 15 15 C10.05 15 5.1 15 0 15 C0 10.05 0 5.1 0 0 Z " fill="#EEEEEE" transform="translate(240,345)"/>
<path d="M0 0 C4.95 0 9.9 0 15 0 C15 4.95 15 9.9 15 15 C10.05 15 5.1 15 0 15 C0 10.05 0 5.1 0 0 Z " fill="#FFFFFF" transform="translate(225,345)"/>
<path d="M0 0 C4.95 0 9.9 0 15 0 C15 4.95 15 9.9 15 15 C10.05 15 5.1 15 0 15 C0 10.05 0 5.1 0 0 Z " fill="#EEEEEE" transform="translate(210,345)"/>
<path d="M0 0 C4.95 0 9.9 0 15 0 C15 4.95 15 9.9 15 15 C10.05 15 5.1 15 0 15 C0 10.05 0 5.1 0 0 Z " fill="#FFFFFF" transform="translate(195,345)"/>
<path d="M0 0 C4.95 0 9.9 0 15 0 C15 4.95 15 9.9 15 15 C10.05 15 5.1 15 0 15 C0 10.05 0 5.1 0 0 Z " fill="#EEEEEE" transform="translate(180,345)"/>
<path d="M0 0 C4.95 0 9.9 0 15 0 C15 4.95 15 9.9 15 15 C10.05 15 5.1 15 0 15 C0 10.05 0 5.1 0 0 Z " fill="#FFFFFF" transform="translate(165,345)"/>
<path d="M0 0 C4.95 0 9.9 0 15 0 C15 4.95 15 9.9 15 15 C10.05 15 5.1 15 0 15 C0 10.05 0 5.1 0 0 Z " fill="#FFFFFF" transform="translate(135,345)"/>
<path d="M0 0 C4.95 0 9.9 0 15 0 C15 4.95 15 9.9 15 15 C10.05 15 5.1 15 0 15 C0 10.05 0 5.1 0 0 Z " fill="#EEEEEE" transform="translate(120,345)"/>
<path d="M0 0 C4.95 0 9.9 0 15 0 C15 4.95 15 9.9 15 15 C10.05 15 5.1 15 0 15 C0 10.05 0 5.1 0 0 Z " fill="#FFFFFF" transform="translate(105,345)"/>
<path d="M0 0 C4.95 0 9.9 0 15 0 C15 4.95 15 9.9 15 15 C10.05 15 5.1 15 0 15 C0 10.05 0 5.1 0 0 Z " fill="#EEEEEE" transform="translate(90,345)"/>
<path d="M0 0 C4.95 0 9.9 0 15 0 C15 4.95 15 9.9 15 15 C10.05 15 5.1 15 0 15 C0 10.05 0 5.1 0 0 Z " fill="#FFFFFF" transform="translate(75,345)"/>
<path d="M0 0 C4.95 0 9.9 0 15 0 C15 4.95 15 9.9 15 15 C10.05 15 5.1 15 0 15 C0 10.05 0 5.1 0 0 Z " fill="#EEEEEE" transform="translate(60,345)"/>
<path d="M0 0 C4.95 0 9.9 0 15 0 C15 4.95 15 9.9 15 15 C10.05 15 5.1 15 0 15 C0 10.05 0 5.1 0 0 Z " fill="#FFFFFF" transform="translate(45,345)"/>
<path d="M0 0 C4.95 0 9.9 0 15 0 C15 4.95 15 9.9 15 15 C10.05 15 5.1 15 0 15 C0 10.05 0 5.1 0 0 Z " fill="#EEEEEE" transform="translate(30,345)"/>
<path d="M0 0 C4.95 0 9.9 0 15 0 C15 4.95 15 9.9 15 15 C10.05 15 5.1 15 0 15 C0 10.05 0 5.1 0 0 Z " fill="#FFFFFF" transform="translate(15,345)"/>
<path d="M0 0 C4.95 0 9.9 0 15 0 C15 4.95 15 9.9 15 15 C10.05 15 5.1 15 0 15 C0 10.05 0 5.1 0 0 Z " fill="#EEEEEE" transform="translate(0,345)"/>
<path d="M0 0 C4.95 0 9.9 0 15 0 C15 4.95 15 9.9 15 15 C10.05 15 5.1 15 0 15 C0 10.05 0 5.1 0 0 Z " fill="#EEEEEE" transform="translate(345,330)"/>
<path d="M0 0 C4.95 0 9.9 0 15 0 C15 4.95 15 9.9 15 15 C10.05 15 5.1 15 0 15 C0 10.05 0 5.1 0 0 Z " fill="#FFFFFF" transform="translate(330,330)"/>
<path d="M0 0 C4.95 0 9.9 0 15 0 C15 4.95 15 9.9 15 15 C10.05 15 5.1 15 0 15 C0 10.05 0 5.1 0 0 Z " fill="#EEEEEE" transform="translate(315,330)"/>
<path d="M0 0 C4.95 0 9.9 0 15 0 C15 4.95 15 9.9 15 15 C10.05 15 5.1 15 0 15 C0 10.05 0 5.1 0 0 Z " fill="#FFFFFF" transform="translate(300,330)"/>
<path d="M0 0 C4.95 0 9.9 0 15 0 C15 4.95 15 9.9 15 15 C10.05 15 5.1 15 0 15 C0 10.05 0 5.1 0 0 Z " fill="#EEEEEE" transform="translate(285,330)"/>
<path d="M0 0 C4.95 0 9.9 0 15 0 C15 4.95 15 9.9 15 15 C10.05 15 5.1 15 0 15 C0 10.05 0 5.1 0 0 Z " fill="#FFFFFF" transform="translate(270,330)"/>
<path d="M0 0 C4.95 0 9.9 0 15 0 C15 4.95 15 9.9 15 15 C10.05 15 5.1 15 0 15 C0 10.05 0 5.1 0 0 Z " fill="#FFFFFF" transform="translate(240,330)"/>
<path d="M0 0 C4.95 0 9.9 0 15 0 C15 4.95 15 9.9 15 15 C10.05 15 5.1 15 0 15 C0 10.05 0 5.1 0 0 Z " fill="#EEEEEE" transform="translate(225,330)"/>
<path d="M0 0 C4.95 0 9.9 0 15 0 C15 4.95 15 9.9 15 15 C10.05 15 5.1 15 0 15 C0 10.05 0 5.1 0 0 Z " fill="#EEEEEE" transform="translate(135,330)"/>
<path d="M0 0 C4.95 0 9.9 0 15 0 C15 4.95 15 9.9 15 15 C10.05 15 5.1 15 0 15 C0 10.05 0 5.1 0 0 Z " fill="#FFFFFF" transform="translate(120,330)"/>
<path d="M0 0 C4.95 0 9.9 0 15 0 C15 4.95 15 9.9 15 15 C10.05 15 5.1 15 0 15 C0 10.05 0 5.1 0 0 Z " fill="#EEEEEE" transform="translate(105,330)"/>
<path d="M0 0 C4.95 0 9.9 0 15 0 C15 4.95 15 9.9 15 15 C10.05 15 5.1 15 0 15 C0 10.05 0 5.1 0 0 Z " fill="#FFFFFF" transform="translate(90,330)"/>
<path d="M0 0 C4.95 0 9.9 0 15 0 C15 4.95 15 9.9 15 15 C10.05 15 5.1 15 0 15 C0 10.05 0 5.1 0 0 Z " fill="#EEEEEE" transform="translate(75,330)"/>
<path d="M0 0 C4.95 0 9.9 0 15 0 C15 4.95 15 9.9 15 15 C10.05 15 5.1 15 0 15 C0 10.05 0 5.1 0 0 Z " fill="#FFFFFF" transform="translate(60,330)"/>
<path d="M0 0 C4.95 0 9.9 0 15 0 C15 4.95 15 9.9 15 15 C10.05 15 5.1 15 0 15 C0 10.05 0 5.1 0 0 Z " fill="#EEEEEE" transform="translate(45,330)"/>
<path d="M0 0 C4.95 0 9.9 0 15 0 C15 4.95 15 9.9 15 15 C10.05 15 5.1 15 0 15 C0 10.05 0 5.1 0 0 Z " fill="#FFFFFF" transform="translate(30,330)"/>
<path d="M0 0 C4.95 0 9.9 0 15 0 C15 4.95 15 9.9 15 15 C10.05 15 5.1 15 0 15 C0 10.05 0 5.1 0 0 Z " fill="#EEEEEE" transform="translate(15,330)"/>
<path d="M0 0 C4.95 0 9.9 0 15 0 C15 4.95 15 9.9 15 15 C10.05 15 5.1 15 0 15 C0 10.05 0 5.1 0 0 Z " fill="#FFFFFF" transform="translate(0,330)"/>
<path d="M0 0 C4.95 0 9.9 0 15 0 C15 4.95 15 9.9 15 15 C10.05 15 5.1 15 0 15 C0 10.05 0 5.1 0 0 Z " fill="#FFFFFF" transform="translate(345,315)"/>
<path d="M0 0 C4.95 0 9.9 0 15 0 C15 4.95 15 9.9 15 15 C10.05 15 5.1 15 0 15 C0 10.05 0 5.1 0 0 Z " fill="#EEEEEE" transform="translate(330,315)"/>
<path d="M0 0 C4.95 0 9.9 0 15 0 C15 4.95 15 9.9 15 15 C10.05 15 5.1 15 0 15 C0 10.05 0 5.1 0 0 Z " fill="#FFFFFF" transform="translate(315,315)"/>
<path d="M0 0 C4.95 0 9.9 0 15 0 C15 4.95 15 9.9 15 15 C10.05 15 5.1 15 0 15 C0 10.05 0 5.1 0 0 Z " fill="#EEEEEE" transform="translate(300,315)"/>
<path d="M0 0 C4.95 0 9.9 0 15 0 C15 4.95 15 9.9 15 15 C10.05 15 5.1 15 0 15 C0 10.05 0 5.1 0 0 Z " fill="#FFFFFF" transform="translate(285,315)"/>
<path d="M0 0 C4.95 0 9.9 0 15 0 C15 4.95 15 9.9 15 15 C10.05 15 5.1 15 0 15 C0 10.05 0 5.1 0 0 Z " fill="#EEEEEE" transform="translate(270,315)"/>
<path d="M0 0 C4.95 0 9.9 0 15 0 C15 4.95 15 9.9 15 15 C10.05 15 5.1 15 0 15 C0 10.05 0 5.1 0 0 Z " fill="#FFFFFF" transform="translate(255,315)"/>
<path d="M0 0 C4.95 0 9.9 0 15 0 C15 4.95 15 9.9 15 15 C10.05 15 5.1 15 0 15 C0 10.05 0 5.1 0 0 Z " fill="#EEEEEE" transform="translate(90,315)"/>
<path d="M0 0 C4.95 0 9.9 0 15 0 C15 4.95 15 9.9 15 15 C10.05 15 5.1 15 0 15 C0 10.05 0 5.1 0 0 Z " fill="#FFFFFF" transform="translate(75,315)"/>
<path d="M0 0 C4.95 0 9.9 0 15 0 C15 4.95 15 9.9 15 15 C10.05 15 5.1 15 0 15 C0 10.05 0 5.1 0 0 Z " fill="#EEEEEE" transform="translate(60,315)"/>
<path d="M0 0 C4.95 0 9.9 0 15 0 C15 4.95 15 9.9 15 15 C10.05 15 5.1 15 0 15 C0 10.05 0 5.1 0 0 Z " fill="#FFFFFF" transform="translate(45,315)"/>
<path d="M0 0 C4.95 0 9.9 0 15 0 C15 4.95 15 9.9 15 15 C10.05 15 5.1 15 0 15 C0 10.05 0 5.1 0 0 Z " fill="#EEEEEE" transform="translate(30,315)"/>
<path d="M0 0 C4.95 0 9.9 0 15 0 C15 4.95 15 9.9 15 15 C10.05 15 5.1 15 0 15 C0 10.05 0 5.1 0 0 Z " fill="#FFFFFF" transform="translate(15,315)"/>
<path d="M0 0 C4.95 0 9.9 0 15 0 C15 4.95 15 9.9 15 15 C10.05 15 5.1 15 0 15 C0 10.05 0 5.1 0 0 Z " fill="#EEEEEE" transform="translate(0,315)"/>
<path d="M0 0 C4.95 0 9.9 0 15 0 C15 4.95 15 9.9 15 15 C10.05 15 5.1 15 0 15 C0 10.05 0 5.1 0 0 Z " fill="#EEEEEE" transform="translate(345,300)"/>
<path d="M0 0 C4.95 0 9.9 0 15 0 C15 4.95 15 9.9 15 15 C10.05 15 5.1 15 0 15 C0 10.05 0 5.1 0 0 Z " fill="#FFFFFF" transform="translate(330,300)"/>
<path d="M0 0 C4.95 0 9.9 0 15 0 C15 4.95 15 9.9 15 15 C10.05 15 5.1 15 0 15 C0 10.05 0 5.1 0 0 Z " fill="#EEEEEE" transform="translate(315,300)"/>
<path d="M0 0 C4.95 0 9.9 0 15 0 C15 4.95 15 9.9 15 15 C10.05 15 5.1 15 0 15 C0 10.05 0 5.1 0 0 Z " fill="#FFFFFF" transform="translate(300,300)"/>
<path d="M0 0 C4.95 0 9.9 0 15 0 C15 4.95 15 9.9 15 15 C10.05 15 5.1 15 0 15 C0 10.05 0 5.1 0 0 Z " fill="#EEEEEE" transform="translate(285,300)"/>
<path d="M0 0 C4.95 0 9.9 0 15 0 C15 4.95 15 9.9 15 15 C10.05 15 5.1 15 0 15 C0 10.05 0 5.1 0 0 Z " fill="#FFFFFF" transform="translate(60,300)"/>
<path d="M0 0 C4.95 0 9.9 0 15 0 C15 4.95 15 9.9 15 15 C10.05 15 5.1 15 0 15 C0 10.05 0 5.1 0 0 Z " fill="#EEEEEE" transform="translate(45,300)"/>
<path d="M0 0 C4.95 0 9.9 0 15 0 C15 4.95 15 9.9 15 15 C10.05 15 5.1 15 0 15 C0 10.05 0 5.1 0 0 Z " fill="#FFFFFF" transform="translate(30,300)"/>
<path d="M0 0 C4.95 0 9.9 0 15 0 C15 4.95 15 9.9 15 15 C10.05 15 5.1 15 0 15 C0 10.05 0 5.1 0 0 Z " fill="#EEEEEE" transform="translate(15,300)"/>
<path d="M0 0 C4.95 0 9.9 0 15 0 C15 4.95 15 9.9 15 15 C10.05 15 5.1 15 0 15 C0 10.05 0 5.1 0 0 Z " fill="#FFFFFF" transform="translate(0,300)"/>
<path d="M0 0 C4.95 0 9.9 0 15 0 C15 4.95 15 9.9 15 15 C10.05 15 5.1 15 0 15 C0 10.05 0 5.1 0 0 Z " fill="#FFFFFF" transform="translate(345,285)"/>
<path d="M0 0 C4.95 0 9.9 0 15 0 C15 4.95 15 9.9 15 15 C10.05 15 5.1 15 0 15 C0 10.05 0 5.1 0 0 Z " fill="#EEEEEE" transform="translate(330,285)"/>
<path d="M0 0 C4.95 0 9.9 0 15 0 C15 4.95 15 9.9 15 15 C10.05 15 5.1 15 0 15 C0 10.05 0 5.1 0 0 Z " fill="#FFFFFF" transform="translate(315,285)"/>
<path d="M0 0 C4.95 0 9.9 0 15 0 C15 4.95 15 9.9 15 15 C10.05 15 5.1 15 0 15 C0 10.05 0 5.1 0 0 Z " fill="#EEEEEE" transform="translate(300,285)"/>
<path d="M0 0 C4.95 0 9.9 0 15 0 C15 4.95 15 9.9 15 15 C10.05 15 5.1 15 0 15 C0 10.05 0 5.1 0 0 Z " fill="#FFFFFF" transform="translate(45,285)"/>
<path d="M0 0 C4.95 0 9.9 0 15 0 C15 4.95 15 9.9 15 15 C10.05 15 5.1 15 0 15 C0 10.05 0 5.1 0 0 Z " fill="#EEEEEE" transform="translate(30,285)"/>
<path d="M0 0 C4.95 0 9.9 0 15 0 C15 4.95 15 9.9 15 15 C10.05 15 5.1 15 0 15 C0 10.05 0 5.1 0 0 Z " fill="#FFFFFF" transform="translate(15,285)"/>
<path d="M0 0 C4.95 0 9.9 0 15 0 C15 4.95 15 9.9 15 15 C10.05 15 5.1 15 0 15 C0 10.05 0 5.1 0 0 Z " fill="#EEEEEE" transform="translate(0,285)"/>
<path d="M0 0 C4.95 0 9.9 0 15 0 C15 4.95 15 9.9 15 15 C10.05 15 5.1 15 0 15 C0 10.05 0 5.1 0 0 Z " fill="#EEEEEE" transform="translate(345,270)"/>
<path d="M0 0 C4.95 0 9.9 0 15 0 C15 4.95 15 9.9 15 15 C10.05 15 5.1 15 0 15 C0 10.05 0 5.1 0 0 Z " fill="#FFFFFF" transform="translate(330,270)"/>
<path d="M0 0 C4.95 0 9.9 0 15 0 C15 4.95 15 9.9 15 15 C10.05 15 5.1 15 0 15 C0 10.05 0 5.1 0 0 Z " fill="#EEEEEE" transform="translate(315,270)"/>
<path d="M0 0 C4.95 0 9.9 0 15 0 C15 4.95 15 9.9 15 15 C10.05 15 5.1 15 0 15 C0 10.05 0 5.1 0 0 Z " fill="#FFFFFF" transform="translate(30,270)"/>
<path d="M0 0 C4.95 0 9.9 0 15 0 C15 4.95 15 9.9 15 15 C10.05 15 5.1 15 0 15 C0 10.05 0 5.1 0 0 Z " fill="#EEEEEE" transform="translate(15,270)"/>
<path d="M0 0 C4.95 0 9.9 0 15 0 C15 4.95 15 9.9 15 15 C10.05 15 5.1 15 0 15 C0 10.05 0 5.1 0 0 Z " fill="#FFFFFF" transform="translate(0,270)"/>
<path d="M0 0 C4.95 0 9.9 0 15 0 C15 4.95 15 9.9 15 15 C10.05 15 5.1 15 0 15 C0 10.05 0 5.1 0 0 Z " fill="#FFFFFF" transform="translate(345,255)"/>
<path d="M0 0 C4.95 0 9.9 0 15 0 C15 4.95 15 9.9 15 15 C10.05 15 5.1 15 0 15 C0 10.05 0 5.1 0 0 Z " fill="#EEEEEE" transform="translate(330,255)"/>
<path d="M0 0 C4.95 0 9.9 0 15 0 C15 4.95 15 9.9 15 15 C10.05 15 5.1 15 0 15 C0 10.05 0 5.1 0 0 Z " fill="#FFFFFF" transform="translate(315,255)"/>
<path d="M0 0 C4.95 0 9.9 0 15 0 C15 4.95 15 9.9 15 15 C10.05 15 5.1 15 0 15 C0 10.05 0 5.1 0 0 Z " fill="#EEEEEE" transform="translate(30,255)"/>
<path d="M0 0 C4.95 0 9.9 0 15 0 C15 4.95 15 9.9 15 15 C10.05 15 5.1 15 0 15 C0 10.05 0 5.1 0 0 Z " fill="#FFFFFF" transform="translate(15,255)"/>
<path d="M0 0 C4.95 0 9.9 0 15 0 C15 4.95 15 9.9 15 15 C10.05 15 5.1 15 0 15 C0 10.05 0 5.1 0 0 Z " fill="#EEEEEE" transform="translate(0,255)"/>
<path d="M0 0 C4.95 0 9.9 0 15 0 C15 4.95 15 9.9 15 15 C10.05 15 5.1 15 0 15 C0 10.05 0 5.1 0 0 Z " fill="#FFFFFF" transform="translate(330,240)"/>
<path d="M0 0 C4.95 0 9.9 0 15 0 C15 4.95 15 9.9 15 15 C10.05 15 5.1 15 0 15 C0 10.05 0 5.1 0 0 Z " fill="#EEEEEE" transform="translate(15,240)"/>
<path d="M0 0 C4.95 0 9.9 0 15 0 C15 4.95 15 9.9 15 15 C10.05 15 5.1 15 0 15 C0 10.05 0 5.1 0 0 Z " fill="#FFFFFF" transform="translate(0,240)"/>
<path d="M0 0 C4.95 0 9.9 0 15 0 C15 4.95 15 9.9 15 15 C10.05 15 5.1 15 0 15 C0 10.05 0 5.1 0 0 Z " fill="#FFFFFF" transform="translate(345,225)"/>
<path d="M0 0 C4.95 0 9.9 0 15 0 C15 4.95 15 9.9 15 15 C10.05 15 5.1 15 0 15 C0 10.05 0 5.1 0 0 Z " fill="#FFFFFF" transform="translate(15,225)"/>
<path d="M0 0 C4.95 0 9.9 0 15 0 C15 4.95 15 9.9 15 15 C10.05 15 5.1 15 0 15 C0 10.05 0 5.1 0 0 Z " fill="#EEEEEE" transform="translate(0,225)"/>
<path d="M0 0 C4.95 0 9.9 0 15 0 C15 4.95 15 9.9 15 15 C10.05 15 5.1 15 0 15 C0 10.05 0 5.1 0 0 Z " fill="#EEEEEE" transform="translate(345,210)"/>
<path d="M0 0 C4.95 0 9.9 0 15 0 C15 4.95 15 9.9 15 15 C10.05 15 5.1 15 0 15 C0 10.05 0 5.1 0 0 Z " fill="#EEEEEE" transform="translate(15,210)"/>
<path d="M0 0 C4.95 0 9.9 0 15 0 C15 4.95 15 9.9 15 15 C10.05 15 5.1 15 0 15 C0 10.05 0 5.1 0 0 Z " fill="#FFFFFF" transform="translate(0,210)"/>
<path d="M0 0 C4.95 0 9.9 0 15 0 C15 4.95 15 9.9 15 15 C10.05 15 5.1 15 0 15 C0 10.05 0 5.1 0 0 Z " fill="#FFFFFF" transform="translate(345,195)"/>
<path d="M0 0 C4.95 0 9.9 0 15 0 C15 4.95 15 9.9 15 15 C10.05 15 5.1 15 0 15 C0 10.05 0 5.1 0 0 Z " fill="#EEEEEE" transform="translate(0,195)"/>
<path d="M0 0 C4.95 0 9.9 0 15 0 C15 4.95 15 9.9 15 15 C10.05 15 5.1 15 0 15 C0 10.05 0 5.1 0 0 Z " fill="#EEEEEE" transform="translate(345,180)"/>
<path d="M0 0 C4.95 0 9.9 0 15 0 C15 4.95 15 9.9 15 15 C10.05 15 5.1 15 0 15 C0 10.05 0 5.1 0 0 Z " fill="#FFFFFF" transform="translate(0,180)"/>
<path d="M0 0 C4.95 0 9.9 0 15 0 C15 4.95 15 9.9 15 15 C10.05 15 5.1 15 0 15 C0 10.05 0 5.1 0 0 Z " fill="#FFFFFF" transform="translate(345,165)"/>
<path d="M0 0 C4.95 0 9.9 0 15 0 C15 4.95 15 9.9 15 15 C10.05 15 5.1 15 0 15 C0 10.05 0 5.1 0 0 Z " fill="#EEEEEE" transform="translate(0,165)"/>
<path d="M0 0 C4.95 0 9.9 0 15 0 C15 4.95 15 9.9 15 15 C10.05 15 5.1 15 0 15 C0 10.05 0 5.1 0 0 Z " fill="#EEEEEE" transform="translate(345,150)"/>
<path d="M0 0 C4.95 0 9.9 0 15 0 C15 4.95 15 9.9 15 15 C10.05 15 5.1 15 0 15 C0 10.05 0 5.1 0 0 Z " fill="#FFFFFF" transform="translate(0,150)"/>
<path d="M0 0 C4.95 0 9.9 0 15 0 C15 4.95 15 9.9 15 15 C10.05 15 5.1 15 0 15 C0 10.05 0 5.1 0 0 Z " fill="#FFFFFF" transform="translate(345,135)"/>
<path d="M0 0 C4.95 0 9.9 0 15 0 C15 4.95 15 9.9 15 15 C10.05 15 5.1 15 0 15 C0 10.05 0 5.1 0 0 Z " fill="#EEEEEE" transform="translate(0,135)"/>
<path d="M0 0 C4.95 0 9.9 0 15 0 C15 4.95 15 9.9 15 15 C10.05 15 5.1 15 0 15 C0 10.05 0 5.1 0 0 Z " fill="#EEEEEE" transform="translate(345,120)"/>
<path d="M0 0 C4.95 0 9.9 0 15 0 C15 4.95 15 9.9 15 15 C10.05 15 5.1 15 0 15 C0 10.05 0 5.1 0 0 Z " fill="#FFFFFF" transform="translate(330,120)"/>
<path d="M0 0 C4.95 0 9.9 0 15 0 C15 4.95 15 9.9 15 15 C10.05 15 5.1 15 0 15 C0 10.05 0 5.1 0 0 Z " fill="#EEEEEE" transform="translate(15,120)"/>
<path d="M0 0 C4.95 0 9.9 0 15 0 C15 4.95 15 9.9 15 15 C10.05 15 5.1 15 0 15 C0 10.05 0 5.1 0 0 Z " fill="#FFFFFF" transform="translate(0,120)"/>
<path d="M0 0 C4.95 0 9.9 0 15 0 C15 4.95 15 9.9 15 15 C10.05 15 5.1 15 0 15 C0 10.05 0 5.1 0 0 Z " fill="#FFFFFF" transform="translate(345,105)"/>
<path d="M0 0 C4.95 0 9.9 0 15 0 C15 4.95 15 9.9 15 15 C10.05 15 5.1 15 0 15 C0 10.05 0 5.1 0 0 Z " fill="#EEEEEE" transform="translate(330,105)"/>
<path d="M0 0 C4.95 0 9.9 0 15 0 C15 4.95 15 9.9 15 15 C10.05 15 5.1 15 0 15 C0 10.05 0 5.1 0 0 Z " fill="#FFFFFF" transform="translate(15,105)"/>
<path d="M0 0 C4.95 0 9.9 0 15 0 C15 4.95 15 9.9 15 15 C10.05 15 5.1 15 0 15 C0 10.05 0 5.1 0 0 Z " fill="#EEEEEE" transform="translate(0,105)"/>
<path d="M0 0 C4.95 0 9.9 0 15 0 C15 4.95 15 9.9 15 15 C10.05 15 5.1 15 0 15 C0 10.05 0 5.1 0 0 Z " fill="#EEEEEE" transform="translate(345,90)"/>
<path d="M0 0 C4.95 0 9.9 0 15 0 C15 4.95 15 9.9 15 15 C10.05 15 5.1 15 0 15 C0 10.05 0 5.1 0 0 Z " fill="#FFFFFF" transform="translate(330,90)"/>
<path d="M0 0 C4.95 0 9.9 0 15 0 C15 4.95 15 9.9 15 15 C10.05 15 5.1 15 0 15 C0 10.05 0 5.1 0 0 Z " fill="#EEEEEE" transform="translate(315,90)"/>
<path d="M0 0 C4.95 0 9.9 0 15 0 C15 4.95 15 9.9 15 15 C10.05 15 5.1 15 0 15 C0 10.05 0 5.1 0 0 Z " fill="#FFFFFF" transform="translate(30,90)"/>
<path d="M0 0 C4.95 0 9.9 0 15 0 C15 4.95 15 9.9 15 15 C10.05 15 5.1 15 0 15 C0 10.05 0 5.1 0 0 Z " fill="#EEEEEE" transform="translate(15,90)"/>
<path d="M0 0 C4.95 0 9.9 0 15 0 C15 4.95 15 9.9 15 15 C10.05 15 5.1 15 0 15 C0 10.05 0 5.1 0 0 Z " fill="#FFFFFF" transform="translate(0,90)"/>
<path d="M0 0 C4.95 0 9.9 0 15 0 C15 4.95 15 9.9 15 15 C10.05 15 5.1 15 0 15 C0 10.05 0 5.1 0 0 Z " fill="#FFFFFF" transform="translate(345,75)"/>
<path d="M0 0 C4.95 0 9.9 0 15 0 C15 4.95 15 9.9 15 15 C10.05 15 5.1 15 0 15 C0 10.05 0 5.1 0 0 Z " fill="#EEEEEE" transform="translate(330,75)"/>
<path d="M0 0 C4.95 0 9.9 0 15 0 C15 4.95 15 9.9 15 15 C10.05 15 5.1 15 0 15 C0 10.05 0 5.1 0 0 Z " fill="#FFFFFF" transform="translate(315,75)"/>
<path d="M0 0 C4.95 0 9.9 0 15 0 C15 4.95 15 9.9 15 15 C10.05 15 5.1 15 0 15 C0 10.05 0 5.1 0 0 Z " fill="#EEEEEE" transform="translate(30,75)"/>
<path d="M0 0 C4.95 0 9.9 0 15 0 C15 4.95 15 9.9 15 15 C10.05 15 5.1 15 0 15 C0 10.05 0 5.1 0 0 Z " fill="#FFFFFF" transform="translate(15,75)"/>
<path d="M0 0 C4.95 0 9.9 0 15 0 C15 4.95 15 9.9 15 15 C10.05 15 5.1 15 0 15 C0 10.05 0 5.1 0 0 Z " fill="#EEEEEE" transform="translate(0,75)"/>
<path d="M0 0 C4.95 0 9.9 0 15 0 C15 4.95 15 9.9 15 15 C10.05 15 5.1 15 0 15 C0 10.05 0 5.1 0 0 Z " fill="#EEEEEE" transform="translate(345,60)"/>
<path d="M0 0 C4.95 0 9.9 0 15 0 C15 4.95 15 9.9 15 15 C10.05 15 5.1 15 0 15 C0 10.05 0 5.1 0 0 Z " fill="#FFFFFF" transform="translate(330,60)"/>
<path d="M0 0 C4.95 0 9.9 0 15 0 C15 4.95 15 9.9 15 15 C10.05 15 5.1 15 0 15 C0 10.05 0 5.1 0 0 Z " fill="#EEEEEE" transform="translate(315,60)"/>
<path d="M0 0 C4.95 0 9.9 0 15 0 C15 4.95 15 9.9 15 15 C10.05 15 5.1 15 0 15 C0 10.05 0 5.1 0 0 Z " fill="#FFFFFF" transform="translate(300,60)"/>
<path d="M0 0 C4.95 0 9.9 0 15 0 C15 4.95 15 9.9 15 15 C10.05 15 5.1 15 0 15 C0 10.05 0 5.1 0 0 Z " fill="#EEEEEE" transform="translate(45,60)"/>
<path d="M0 0 C4.95 0 9.9 0 15 0 C15 4.95 15 9.9 15 15 C10.05 15 5.1 15 0 15 C0 10.05 0 5.1 0 0 Z " fill="#FFFFFF" transform="translate(30,60)"/>
<path d="M0 0 C4.95 0 9.9 0 15 0 C15 4.95 15 9.9 15 15 C10.05 15 5.1 15 0 15 C0 10.05 0 5.1 0 0 Z " fill="#EEEEEE" transform="translate(15,60)"/>
<path d="M0 0 C4.95 0 9.9 0 15 0 C15 4.95 15 9.9 15 15 C10.05 15 5.1 15 0 15 C0 10.05 0 5.1 0 0 Z " fill="#FFFFFF" transform="translate(0,60)"/>
<path d="M0 0 C4.95 0 9.9 0 15 0 C15 4.95 15 9.9 15 15 C10.05 15 5.1 15 0 15 C0 10.05 0 5.1 0 0 Z " fill="#FFFFFF" transform="translate(345,45)"/>
<path d="M0 0 C4.95 0 9.9 0 15 0 C15 4.95 15 9.9 15 15 C10.05 15 5.1 15 0 15 C0 10.05 0 5.1 0 0 Z " fill="#EEEEEE" transform="translate(330,45)"/>
<path d="M0 0 C4.95 0 9.9 0 15 0 C15 4.95 15 9.9 15 15 C10.05 15 5.1 15 0 15 C0 10.05 0 5.1 0 0 Z " fill="#FFFFFF" transform="translate(315,45)"/>
<path d="M0 0 C4.95 0 9.9 0 15 0 C15 4.95 15 9.9 15 15 C10.05 15 5.1 15 0 15 C0 10.05 0 5.1 0 0 Z " fill="#EEEEEE" transform="translate(300,45)"/>
<path d="M0 0 C4.95 0 9.9 0 15 0 C15 4.95 15 9.9 15 15 C10.05 15 5.1 15 0 15 C0 10.05 0 5.1 0 0 Z " fill="#FFFFFF" transform="translate(285,45)"/>
<path d="M0 0 C4.95 0 9.9 0 15 0 C15 4.95 15 9.9 15 15 C10.05 15 5.1 15 0 15 C0 10.05 0 5.1 0 0 Z " fill="#EEEEEE" transform="translate(60,45)"/>
<path d="M0 0 C4.95 0 9.9 0 15 0 C15 4.95 15 9.9 15 15 C10.05 15 5.1 15 0 15 C0 10.05 0 5.1 0 0 Z " fill="#FFFFFF" transform="translate(45,45)"/>
<path d="M0 0 C4.95 0 9.9 0 15 0 C15 4.95 15 9.9 15 15 C10.05 15 5.1 15 0 15 C0 10.05 0 5.1 0 0 Z " fill="#EEEEEE" transform="translate(30,45)"/>
<path d="M0 0 C4.95 0 9.9 0 15 0 C15 4.95 15 9.9 15 15 C10.05 15 5.1 15 0 15 C0 10.05 0 5.1 0 0 Z " fill="#FFFFFF" transform="translate(15,45)"/>
<path d="M0 0 C4.95 0 9.9 0 15 0 C15 4.95 15 9.9 15 15 C10.05 15 5.1 15 0 15 C0 10.05 0 5.1 0 0 Z " fill="#EEEEEE" transform="translate(0,45)"/>
<path d="M0 0 C4.95 0 9.9 0 15 0 C15 4.95 15 9.9 15 15 C10.05 15 5.1 15 0 15 C0 10.05 0 5.1 0 0 Z " fill="#EEEEEE" transform="translate(345,30)"/>
<path d="M0 0 C4.95 0 9.9 0 15 0 C15 4.95 15 9.9 15 15 C10.05 15 5.1 15 0 15 C0 10.05 0 5.1 0 0 Z " fill="#FFFFFF" transform="translate(330,30)"/>
<path d="M0 0 C4.95 0 9.9 0 15 0 C15 4.95 15 9.9 15 15 C10.05 15 5.1 15 0 15 C0 10.05 0 5.1 0 0 Z " fill="#EEEEEE" transform="translate(315,30)"/>
<path d="M0 0 C4.95 0 9.9 0 15 0 C15 4.95 15 9.9 15 15 C10.05 15 5.1 15 0 15 C0 10.05 0 5.1 0 0 Z " fill="#FFFFFF" transform="translate(300,30)"/>
<path d="M0 0 C4.95 0 9.9 0 15 0 C15 4.95 15 9.9 15 15 C10.05 15 5.1 15 0 15 C0 10.05 0 5.1 0 0 Z " fill="#EEEEEE" transform="translate(285,30)"/>
<path d="M0 0 C4.95 0 9.9 0 15 0 C15 4.95 15 9.9 15 15 C10.05 15 5.1 15 0 15 C0 10.05 0 5.1 0 0 Z " fill="#FFFFFF" transform="translate(270,30)"/>
<path d="M0 0 C4.95 0 9.9 0 15 0 C15 4.95 15 9.9 15 15 C10.05 15 5.1 15 0 15 C0 10.05 0 5.1 0 0 Z " fill="#FFFFFF" transform="translate(90,30)"/>
<path d="M0 0 C4.95 0 9.9 0 15 0 C15 4.95 15 9.9 15 15 C10.05 15 5.1 15 0 15 C0 10.05 0 5.1 0 0 Z " fill="#EEEEEE" transform="translate(75,30)"/>
<path d="M0 0 C4.95 0 9.9 0 15 0 C15 4.95 15 9.9 15 15 C10.05 15 5.1 15 0 15 C0 10.05 0 5.1 0 0 Z " fill="#FFFFFF" transform="translate(60,30)"/>
<path d="M0 0 C4.95 0 9.9 0 15 0 C15 4.95 15 9.9 15 15 C10.05 15 5.1 15 0 15 C0 10.05 0 5.1 0 0 Z " fill="#EEEEEE" transform="translate(45,30)"/>
<path d="M0 0 C4.95 0 9.9 0 15 0 C15 4.95 15 9.9 15 15 C10.05 15 5.1 15 0 15 C0 10.05 0 5.1 0 0 Z " fill="#FFFFFF" transform="translate(30,30)"/>
<path d="M0 0 C4.95 0 9.9 0 15 0 C15 4.95 15 9.9 15 15 C10.05 15 5.1 15 0 15 C0 10.05 0 5.1 0 0 Z " fill="#EEEEEE" transform="translate(15,30)"/>
<path d="M0 0 C4.95 0 9.9 0 15 0 C15 4.95 15 9.9 15 15 C10.05 15 5.1 15 0 15 C0 10.05 0 5.1 0 0 Z " fill="#FFFFFF" transform="translate(0,30)"/>
<path d="M0 0 C4.95 0 9.9 0 15 0 C15 4.95 15 9.9 15 15 C10.05 15 5.1 15 0 15 C0 10.05 0 5.1 0 0 Z " fill="#FFFFFF" transform="translate(345,15)"/>
<path d="M0 0 C4.95 0 9.9 0 15 0 C15 4.95 15 9.9 15 15 C10.05 15 5.1 15 0 15 C0 10.05 0 5.1 0 0 Z " fill="#EEEEEE" transform="translate(330,15)"/>
<path d="M0 0 C4.95 0 9.9 0 15 0 C15 4.95 15 9.9 15 15 C10.05 15 5.1 15 0 15 C0 10.05 0 5.1 0 0 Z " fill="#FFFFFF" transform="translate(315,15)"/>
<path d="M0 0 C4.95 0 9.9 0 15 0 C15 4.95 15 9.9 15 15 C10.05 15 5.1 15 0 15 C0 10.05 0 5.1 0 0 Z " fill="#EEEEEE" transform="translate(300,15)"/>
<path d="M0 0 C4.95 0 9.9 0 15 0 C15 4.95 15 9.9 15 15 C10.05 15 5.1 15 0 15 C0 10.05 0 5.1 0 0 Z " fill="#FFFFFF" transform="translate(285,15)"/>
<path d="M0 0 C4.95 0 9.9 0 15 0 C15 4.95 15 9.9 15 15 C10.05 15 5.1 15 0 15 C0 10.05 0 5.1 0 0 Z " fill="#EEEEEE" transform="translate(270,15)"/>
<path d="M0 0 C4.95 0 9.9 0 15 0 C15 4.95 15 9.9 15 15 C10.05 15 5.1 15 0 15 C0 10.05 0 5.1 0 0 Z " fill="#FFFFFF" transform="translate(255,15)"/>
<path d="M0 0 C4.95 0 9.9 0 15 0 C15 4.95 15 9.9 15 15 C10.05 15 5.1 15 0 15 C0 10.05 0 5.1 0 0 Z " fill="#FFFFFF" transform="translate(225,15)"/>
<path d="M0 0 C4.95 0 9.9 0 15 0 C15 4.95 15 9.9 15 15 C10.05 15 5.1 15 0 15 C0 10.05 0 5.1 0 0 Z " fill="#EEEEEE" transform="translate(210,15)"/>
<path d="M0 0 C4.95 0 9.9 0 15 0 C15 4.95 15 9.9 15 15 C10.05 15 5.1 15 0 15 C0 10.05 0 5.1 0 0 Z " fill="#EEEEEE" transform="translate(120,15)"/>
<path d="M0 0 C4.95 0 9.9 0 15 0 C15 4.95 15 9.9 15 15 C10.05 15 5.1 15 0 15 C0 10.05 0 5.1 0 0 Z " fill="#FFFFFF" transform="translate(105,15)"/>
<path d="M0 0 C4.95 0 9.9 0 15 0 C15 4.95 15 9.9 15 15 C10.05 15 5.1 15 0 15 C0 10.05 0 5.1 0 0 Z " fill="#EEEEEE" transform="translate(90,15)"/>
<path d="M0 0 C4.95 0 9.9 0 15 0 C15 4.95 15 9.9 15 15 C10.05 15 5.1 15 0 15 C0 10.05 0 5.1 0 0 Z " fill="#FFFFFF" transform="translate(75,15)"/>
<path d="M0 0 C4.95 0 9.9 0 15 0 C15 4.95 15 9.9 15 15 C10.05 15 5.1 15 0 15 C0 10.05 0 5.1 0 0 Z " fill="#EEEEEE" transform="translate(60,15)"/>
<path d="M0 0 C4.95 0 9.9 0 15 0 C15 4.95 15 9.9 15 15 C10.05 15 5.1 15 0 15 C0 10.05 0 5.1 0 0 Z " fill="#FFFFFF" transform="translate(45,15)"/>
<path d="M0 0 C4.95 0 9.9 0 15 0 C15 4.95 15 9.9 15 15 C10.05 15 5.1 15 0 15 C0 10.05 0 5.1 0 0 Z " fill="#EEEEEE" transform="translate(30,15)"/>
<path d="M0 0 C4.95 0 9.9 0 15 0 C15 4.95 15 9.9 15 15 C10.05 15 5.1 15 0 15 C0 10.05 0 5.1 0 0 Z " fill="#FFFFFF" transform="translate(15,15)"/>
<path d="M0 0 C4.95 0 9.9 0 15 0 C15 4.95 15 9.9 15 15 C10.05 15 5.1 15 0 15 C0 10.05 0 5.1 0 0 Z " fill="#EEEEEE" transform="translate(0,15)"/>
<path d="M0 0 C4.95 0 9.9 0 15 0 C15 4.95 15 9.9 15 15 C10.05 15 5.1 15 0 15 C0 10.05 0 5.1 0 0 Z " fill="#EEEEEE" transform="translate(345,0)"/>
<path d="M0 0 C4.95 0 9.9 0 15 0 C15 4.95 15 9.9 15 15 C10.05 15 5.1 15 0 15 C0 10.05 0 5.1 0 0 Z " fill="#FFFFFF" transform="translate(330,0)"/>
<path d="M0 0 C4.95 0 9.9 0 15 0 C15 4.95 15 9.9 15 15 C10.05 15 5.1 15 0 15 C0 10.05 0 5.1 0 0 Z " fill="#EEEEEE" transform="translate(315,0)"/>
<path d="M0 0 C4.95 0 9.9 0 15 0 C15 4.95 15 9.9 15 15 C10.05 15 5.1 15 0 15 C0 10.05 0 5.1 0 0 Z " fill="#FFFFFF" transform="translate(300,0)"/>
<path d="M0 0 C4.95 0 9.9 0 15 0 C15 4.95 15 9.9 15 15 C10.05 15 5.1 15 0 15 C0 10.05 0 5.1 0 0 Z " fill="#EEEEEE" transform="translate(285,0)"/>
<path d="M0 0 C4.95 0 9.9 0 15 0 C15 4.95 15 9.9 15 15 C10.05 15 5.1 15 0 15 C0 10.05 0 5.1 0 0 Z " fill="#FFFFFF" transform="translate(270,0)"/>
<path d="M0 0 C4.95 0 9.9 0 15 0 C15 4.95 15 9.9 15 15 C10.05 15 5.1 15 0 15 C0 10.05 0 5.1 0 0 Z " fill="#EEEEEE" transform="translate(255,0)"/>
<path d="M0 0 C4.95 0 9.9 0 15 0 C15 4.95 15 9.9 15 15 C10.05 15 5.1 15 0 15 C0 10.05 0 5.1 0 0 Z " fill="#FFFFFF" transform="translate(240,0)"/>
<path d="M0 0 C4.95 0 9.9 0 15 0 C15 4.95 15 9.9 15 15 C10.05 15 5.1 15 0 15 C0 10.05 0 5.1 0 0 Z " fill="#EEEEEE" transform="translate(225,0)"/>
<path d="M0 0 C4.95 0 9.9 0 15 0 C15 4.95 15 9.9 15 15 C10.05 15 5.1 15 0 15 C0 10.05 0 5.1 0 0 Z " fill="#FFFFFF" transform="translate(210,0)"/>
<path d="M0 0 C4.95 0 9.9 0 15 0 C15 4.95 15 9.9 15 15 C10.05 15 5.1 15 0 15 C0 10.05 0 5.1 0 0 Z " fill="#EEEEEE" transform="translate(195,0)"/>
<path d="M0 0 C4.95 0 9.9 0 15 0 C15 4.95 15 9.9 15 15 C10.05 15 5.1 15 0 15 C0 10.05 0 5.1 0 0 Z " fill="#FFFFFF" transform="translate(180,0)"/>
<path d="M0 0 C4.95 0 9.9 0 15 0 C15 4.95 15 9.9 15 15 C10.05 15 5.1 15 0 15 C0 10.05 0 5.1 0 0 Z " fill="#EEEEEE" transform="translate(165,0)"/>
<path d="M0 0 C4.95 0 9.9 0 15 0 C15 4.95 15 9.9 15 15 C10.05 15 5.1 15 0 15 C0 10.05 0 5.1 0 0 Z " fill="#FFFFFF" transform="translate(150,0)"/>
<path d="M0 0 C4.95 0 9.9 0 15 0 C15 4.95 15 9.9 15 15 C10.05 15 5.1 15 0 15 C0 10.05 0 5.1 0 0 Z " fill="#EEEEEE" transform="translate(135,0)"/>
<path d="M0 0 C4.95 0 9.9 0 15 0 C15 4.95 15 9.9 15 15 C10.05 15 5.1 15 0 15 C0 10.05 0 5.1 0 0 Z " fill="#FFFFFF" transform="translate(120,0)"/>
<path d="M0 0 C4.95 0 9.9 0 15 0 C15 4.95 15 9.9 15 15 C10.05 15 5.1 15 0 15 C0 10.05 0 5.1 0 0 Z " fill="#EEEEEE" transform="translate(105,0)"/>
<path d="M0 0 C4.95 0 9.9 0 15 0 C15 4.95 15 9.9 15 15 C10.05 15 5.1 15 0 15 C0 10.05 0 5.1 0 0 Z " fill="#FFFFFF" transform="translate(90,0)"/>
<path d="M0 0 C4.95 0 9.9 0 15 0 C15 4.95 15 9.9 15 15 C10.05 15 5.1 15 0 15 C0 10.05 0 5.1 0 0 Z " fill="#EEEEEE" transform="translate(75,0)"/>
<path d="M0 0 C4.95 0 9.9 0 15 0 C15 4.95 15 9.9 15 15 C10.05 15 5.1 15 0 15 C0 10.05 0 5.1 0 0 Z " fill="#FFFFFF" transform="translate(60,0)"/>
<path d="M0 0 C4.95 0 9.9 0 15 0 C15 4.95 15 9.9 15 15 C10.05 15 5.1 15 0 15 C0 10.05 0 5.1 0 0 Z " fill="#EEEEEE" transform="translate(45,0)"/>
<path d="M0 0 C4.95 0 9.9 0 15 0 C15 4.95 15 9.9 15 15 C10.05 15 5.1 15 0 15 C0 10.05 0 5.1 0 0 Z " fill="#FFFFFF" transform="translate(30,0)"/>
<path d="M0 0 C4.95 0 9.9 0 15 0 C15 4.95 15 9.9 15 15 C10.05 15 5.1 15 0 15 C0 10.05 0 5.1 0 0 Z " fill="#FFFFFF" transform="translate(0,0)"/>
<path d="M0 0 C0 4.95 0 9.9 0 15 C-4.95 15 -9.9 15 -15 15 C-15 10.71 -15 6.42 -15 2 C-18.3 2 -21.6 2 -25 2 C-25 1.67 -25 1.34 -25 1 C-21.39588419 0.83222143 -17.7916996 0.66596812 -14.1875 0.5 C-13.16333984 0.45230469 -12.13917969 0.40460938 -11.08398438 0.35546875 C-10.10107422 0.31035156 -9.11816406 0.26523437 -8.10546875 0.21875 C-7.19949951 0.17685547 -6.29353027 0.13496094 -5.36010742 0.09179688 C-3.57449311 0.02234503 -1.78696447 0 0 0 Z " fill="#EEEEEE" transform="translate(210,330)"/>
<path d="M0 0 C1.25180279 4.21919103 0.67252421 7.96088565 0.0625 12.25 C-0.03740234 12.99507812 -0.13730469 13.74015625 -0.24023438 14.5078125 C-0.48680156 16.33945442 -0.74250391 18.16986251 -1 20 C-1.66 19.01 -2.32 18.02 -3 17 C-5.89608399 16.63501966 -5.89608399 16.63501966 -9.125 16.8125 C-12.033125 16.9053125 -12.033125 16.9053125 -15 17 C-15 12.05 -15 7.1 -15 2 C-10.05 2 -5.1 2 0 2 C0 1.34 0 0.68 0 0 Z " fill="#EEEEEE" transform="translate(30,148)"/>
<path d="M0 0 C0.33 0 0.66 0 1 0 C1.33 2.64 1.66 5.28 2 8 C5.96 8 9.92 8 14 8 C14 12.95 14 17.9 14 23 C9.05 23 4.1 23 -1 23 C-0.67 15.41 -0.34 7.82 0 0 Z " fill="#EEEEEE" transform="translate(331,187)"/>
<path d="M0 0 C4.95 0 9.9 0 15 0 C14.90234375 3.05989583 14.8046875 6.11979167 14.70703125 9.1796875 C14.80371094 10.11039063 14.90039062 11.04109375 15 12 C15.99 12.66 16.98 13.32 18 14 C17.14277344 14.06058594 16.28554687 14.12117188 15.40234375 14.18359375 C9.56395127 14.61143536 3.77942728 15.059163 -2 16 C-1.34 15.67 -0.68 15.34 0 15 C0 10.05 0 5.1 0 0 Z " fill="#EEEEEE" transform="translate(150,15)"/>
<path d="M0 0 C4.95 0 9.9 0 15 0 C15 4.95 15 9.9 15 15 C10.71 15 6.42 15 2 15 C-0.28197042 9.29507396 -0.16112419 6.04215727 0 0 Z " fill="#EDEDEE" transform="translate(300,75)"/>
<path d="M0 0 C4.95 0 9.9 0 15 0 C15 4.95 15 9.9 15 15 C6.12676056 15.47323944 6.12676056 15.47323944 1.875 13.6875 C-1.1743012 9.31683495 -0.31143327 5.232079 0 0 Z " fill="#EEEEEE" transform="translate(270,45)"/>
<path d="M0 0 C0.33 0 0.66 0 1 0 C1 4.95 1 9.9 1 15 C4.96 15 8.92 15 13 15 C13 19.95 13 24.9 13 30 C6.565 30.495 6.565 30.495 0 31 C0 20.77 0 10.54 0 0 Z " fill="#FFFFFF" transform="translate(332,165)"/>
<path d="M0 0 C4.95 0 9.9 0 15 0 C15 3.96 15 7.92 15 12 C19.62 12 24.24 12 29 12 C29 12.33 29 12.66 29 13 C18.77 13 8.54 13 -2 13 C-1.34 12.67 -0.68 12.34 0 12 C0 8.04 0 4.08 0 0 Z " fill="#FFFFFF" transform="translate(165,15)"/>
<path d="M0 0 C0 9.57 0 19.14 0 29 C-0.33 29 -0.66 29 -1 29 C-1 24.71 -1 20.42 -1 16 C-4.96 16 -8.92 16 -13 16 C-13 11.05 -13 6.1 -13 1 C-1.125 0 -1.125 0 0 0 Z " fill="#FFFFFF" transform="translate(28,164)"/>
<path d="M0 0 C0 4.95 0 9.9 0 15 C-4.95 15 -9.9 15 -15 15 C-15.69786096 7.32352941 -15.69786096 7.32352941 -13.98046875 4.06640625 C-9.81301954 -0.72099409 -6.08960012 -0.55360001 0 0 Z " fill="#FFFFFF" transform="translate(300,285)"/>
<path d="M0 0 C4.95 0 9.9 0 15 0 C15 4.95 15 9.9 15 15 C7.32352941 15.69786096 7.32352941 15.69786096 4.06640625 13.98046875 C1.47064762 11.72085153 0.1586427 10.04908883 -0.36328125 6.59765625 C-0.375 4.125 -0.375 4.125 0 0 Z " fill="#EEEEEE" transform="translate(285,60)"/>
<path d="M0 0 C6.93 0 13.86 0 21 0 C21 4.29 21 8.58 21 13 C16.05 13 11.1 13 6 13 C6 9.04 6 5.08 6 1 C4.02 1 2.04 1 0 1 C0 0.67 0 0.34 0 0 Z " fill="#FFFFFF" transform="translate(174,332)"/>
<path d="M0 0 C3.63 0 7.26 0 11 0 C11 0.33 11 0.66 11 1 C12.65 1.33 14.3 1.66 16 2 C16 5.96 16 9.92 16 14 C11.05 14 6.1 14 1 14 C0.67 9.38 0.34 4.76 0 0 Z " fill="#EEEEEE" transform="translate(164,331)"/>
<path d="M0 0 C3.96 0 7.92 0 12 0 C12.33 3.63 12.66 7.26 13 11 C13.33 11 13.66 11 14 11 C14 13.31 14 15.62 14 18 C13.34 17.01 12.68 16.02 12 15 C9.10391601 14.63501966 9.10391601 14.63501966 5.875 14.8125 C2.966875 14.9053125 2.966875 14.9053125 0 15 C0 10.05 0 5.1 0 0 Z " fill="#EDEDED" transform="translate(15,180)"/>
<path d="M0 0 C3.96 0 7.92 0 12 0 C12 4.95 12 9.9 12 15 C8.04 15 4.08 15 0 15 C0 10.05 0 5.1 0 0 Z " fill="#EEEEEE" transform="translate(333,165)"/>
<path d="M0 0 C4.95 0 9.9 0 15 0 C15 3.96 15 7.92 15 12 C10.05 12 5.1 12 0 12 C0 8.04 0 4.08 0 0 Z " fill="#EEEEEE" transform="translate(180,15)"/>
<path d="M0 0 C-0.33 2.97 -0.66 5.94 -1 9 C-5.43744539 9.05793591 -9.87479389 9.09357467 -14.3125 9.125 C-15.57513672 9.14175781 -16.83777344 9.15851563 -18.13867188 9.17578125 C-19.95141602 9.18544922 -19.95141602 9.18544922 -21.80078125 9.1953125 C-22.91622314 9.20578613 -24.03166504 9.21625977 -25.1809082 9.22705078 C-28 9 -28 9 -31 7 C-29.97261719 6.75765625 -28.94523438 6.5153125 -27.88671875 6.265625 C-20.45648676 4.47816353 -13.3088602 2.5917444 -6.234375 -0.36328125 C-4 -1 -4 -1 0 0 Z " fill="#F9FBFC" transform="translate(241,321)"/>
<path d="M0 0 C2.09352976 3.43367856 2.23437612 6.09363593 2.1953125 10.078125 C2.18564453 11.81835938 2.18564453 11.81835938 2.17578125 13.59375 C2.15902344 14.8003125 2.14226562 16.006875 2.125 17.25 C2.11597656 18.47203125 2.10695313 19.6940625 2.09765625 20.953125 C2.07409513 23.96894782 2.04119706 26.98437492 2 30 C-1.3 30 -4.6 30 -8 30 C-7.59705613 26.17203325 -6.63900883 23.00186775 -5.125 19.5 C-2.49060391 13.2120619 -1.26951253 6.67455831 0 0 Z " fill="#FBFCFD" transform="translate(328,210)"/>
<path d="M0 0 C4.10410755 -0.05796132 8.20811016 -0.09358313 12.3125 -0.125 C13.47974609 -0.14175781 14.64699219 -0.15851562 15.84960938 -0.17578125 C16.96787109 -0.18222656 18.08613281 -0.18867188 19.23828125 -0.1953125 C20.26993408 -0.20578613 21.30158691 -0.21625977 22.36450195 -0.22705078 C25 0 25 0 28 2 C26.06253906 2.39638672 26.06253906 2.39638672 24.0859375 2.80078125 C18.29416229 4.08595189 12.79647714 6.04525254 7.22265625 8.05273438 C6.46082031 8.31763672 5.69898437 8.58253906 4.9140625 8.85546875 C4.2329541 9.09934326 3.5518457 9.34321777 2.85009766 9.59448242 C1 10 1 10 -2 9 C-1.34 9 -0.68 9 0 9 C0 6.03 0 3.06 0 0 Z " fill="#F8FAFB" transform="translate(120,30)"/>
<path d="M0 0 C3.26141605 1.08713868 3.79115163 1.68028025 5.875 4.25 C9.30222043 8.29367978 12.94351238 12.06537409 16.6875 15.8125 C17.24614746 16.37549805 17.80479492 16.93849609 18.38037109 17.51855469 C21.11749233 20.24666415 23.81248983 22.78968273 27 25 C26.67 25.66 26.34 26.32 26 27 C22.7 26.67 19.4 26.34 16 26 C15.938125 24.618125 15.87625 23.23625 15.8125 21.8125 C15.40364315 18.3508453 14.99612917 16.99419376 13 14 C8.89671974 11.26447983 5.89768884 11.2192995 1 11 C0.67 7.37 0.34 3.74 0 0 Z " fill="#F7F9FB" transform="translate(59,274)"/>
<path d="M0 0 C1.65 0 3.3 0 5 0 C6.65 4.62 8.3 9.24 10 14 C9 15 9 15 6.93359375 15.09765625 C3.46679688 15.04882812 3.46679688 15.04882812 0 15 C0 10.05 0 5.1 0 0 Z " fill="#EDEEEF" transform="translate(30,225)"/>
<path d="M0 0 C4.95 0 9.9 0 15 0 C15 3.3 15 6.6 15 10 C10.05 8.35 5.1 6.7 0 5 C0 3.35 0 1.7 0 0 Z " fill="#EEEEEF" transform="translate(225,30)"/>
<path d="M0 0 C11.36363636 1.36363636 11.36363636 1.36363636 15 5 C15 6.32 15 7.64 15 9 C10.05 9 5.1 9 0 9 C0 6.03 0 3.06 0 0 Z " fill="#EDEEEE" transform="translate(120,321)"/>
<path d="M0 0 C0.33 0 0.66 0 1 0 C1 2.97 1 5.94 1 9 C-0.381875 9.061875 -1.76375 9.12375 -3.1875 9.1875 C-6.6491547 9.59635685 -8.00580624 10.00387083 -11 12 C-13.73552017 16.10328026 -13.7807005 19.10231116 -14 24 C-16.97 24 -19.94 24 -23 24 C-22.2575 23.29875 -21.515 22.5975 -20.75 21.875 C-17.98047104 19.16682453 -17.98047104 19.16682453 -16.25 16.25 C-13.07271072 11.66058215 -9.30346378 7.56640644 -5 4 C-4.01 4 -3.02 4 -2 4 C-1.34 2.68 -0.68 1.36 0 0 Z " fill="#ECEDEF" transform="translate(299,276)"/>
<path d="M0 0 C2.64 0 5.28 0 8 0 C8 3 8 3 6.7578125 4.60546875 C6.21898438 5.12753906 5.68015625 5.64960937 5.125 6.1875 C4.59132813 6.71730469 4.05765625 7.24710937 3.5078125 7.79296875 C2 9 2 9 0 9 C0 6.03 0 3.06 0 0 Z " fill="#EBEDEF" transform="translate(60,75)"/>
<path d="M0 0 C2.97 0 5.94 0 9 0 C6.73106888 4.53786224 4.90133466 5.94678157 1 9 C0 8 0 8 -0.09765625 6.15234375 C-0.06510417 4.1015625 -0.03255208 2.05078125 0 0 Z " fill="#EBEDEF" transform="translate(75,60)"/>
<path d="M0 0 C0.33 1.32 0.66 2.64 1 4 C2.32 4 3.64 4 5 4 C5.05406122 5.93719378 5.09282025 7.87481921 5.125 9.8125 C5.14820313 10.89144531 5.17140625 11.97039062 5.1953125 13.08203125 C5 16 5 16 3 19 C2.49356447 16.77228658 1.9951038 14.54275924 1.5 12.3125 C1.2215625 11.07113281 0.943125 9.82976562 0.65625 8.55078125 C0.10645874 5.57601782 -0.13795705 3.00631398 0 0 Z " fill="#F0F4F8" transform="translate(325,131)"/>
<path d="M0 0 C0 1.32 0 2.64 0 4 C-1.93719378 4.05406122 -3.87481921 4.09282025 -5.8125 4.125 C-6.89144531 4.14820313 -7.97039062 4.17140625 -9.08203125 4.1953125 C-12 4 -12 4 -15 2 C-9.92523206 0.73694665 -5.27203646 -0.27036084 0 0 Z " fill="#EBEDEF" transform="translate(225,326)"/>
<path d="M0 0 C2.02558881 3.34939881 2.21738987 5.86962551 2.125 9.75 C2.10695313 10.73484375 2.08890625 11.7196875 2.0703125 12.734375 C2.03550781 13.85585937 2.03550781 13.85585937 2 15 C1.01 15 0.02 15 -1 15 C-2.4002792 9.53891111 -1.42705634 5.30723432 0 0 Z " fill="#E1E7EB" transform="translate(328,210)"/>
<path d="M0 0 C0.99 0 1.98 0 3 0 C2.67 4.29 2.34 8.58 2 13 C-0.20914 9.68629 -0.22481553 8.6553979 -0.125 4.8125 C-0.10695313 3.91144531 -0.08890625 3.01039063 -0.0703125 2.08203125 C-0.04710938 1.39496094 -0.02390625 0.70789063 0 0 Z " fill="#E8EBED" transform="translate(30,135)"/>
<path d="M0 0 C1.60379341 -0.05416188 3.20811406 -0.09286638 4.8125 -0.125 C5.70582031 -0.14820312 6.59914062 -0.17140625 7.51953125 -0.1953125 C10 0 10 0 13 2 C6.565 2.495 6.565 2.495 0 3 C0 2.01 0 1.02 0 0 Z " fill="#E8EBED" transform="translate(135,30)"/>
</svg>
